<svg id="svg" version="1.1" xmlns="http://www.w3.org/2000/svg" xmlns:xlink="http://www.w3.org/1999/xlink" width="400" height="400" viewBox="0, 0, 400,400"><g id="svgg"><path id="path0" d="M72.144 114.601 C 72.017 114.931,72.028 115.657,72.167 116.213 C 72.307 116.768,72.596 118.973,72.810 121.112 C 73.023 123.250,73.363 126.440,73.564 128.200 C 73.765 129.960,74.314 134.910,74.784 139.200 C 75.254 143.490,76.216 152.220,76.922 158.600 L 78.204 170.200 188.202 170.200 L 298.200 170.200 298.456 167.400 C 298.596 165.860,298.918 162.890,299.172 160.800 C 299.425 158.710,299.799 155.380,300.004 153.400 C 300.209 151.420,300.571 148.090,300.810 146.000 C 301.428 140.579,301.897 136.365,302.366 132.000 C 302.591 129.910,302.969 126.580,303.207 124.600 C 303.862 119.154,304.246 114.379,304.046 114.179 C 303.472 113.605,72.365 114.026,72.144 114.601 M103.458 295.500 L 91.516 295.612 91.728 296.506 C 91.845 296.998,92.051 298.480,92.187 299.800 C 92.322 301.120,92.609 303.640,92.824 305.400 C 93.039 307.160,93.841 314.270,94.606 321.200 C 96.397 337.446,96.776 340.796,97.207 344.200 C 97.401 345.740,97.759 348.980,98.003 351.400 C 99.691 368.207,105.178 376.176,117.005 379.000 C 121.446 380.060,256.079 379.860,259.949 378.787 C 270.913 375.749,276.253 368.430,277.597 354.600 C 277.832 352.180,278.190 348.760,278.393 347.000 C 278.596 345.240,278.959 341.730,279.200 339.200 C 279.441 336.670,279.800 333.160,279.997 331.400 C 280.194 329.640,280.553 326.220,280.794 323.800 C 281.573 315.990,282.523 306.923,283.235 300.504 C 283.485 298.252,283.585 296.137,283.457 295.804 C 283.241 295.241,154.273 295.022,103.458 295.500 " stroke="none" fill="#D7D7D7" fill-rule="evenodd"></path><path id="path1" d="M101.555 21.499 C 101.321 22.105,100.771 23.590,100.334 24.800 C 99.062 28.320,97.947 31.337,97.600 32.200 C 97.423 32.640,96.883 34.080,96.400 35.400 C 95.372 38.211,95.054 39.045,94.494 40.400 C 94.267 40.950,93.864 42.030,93.600 42.800 C 93.018 44.493,92.429 45.960,91.953 46.895 C 91.759 47.277,91.600 47.941,91.600 48.371 C 91.600 48.801,91.420 49.264,91.200 49.400 C 87.846 51.473,94.422 51.600,205.066 51.600 C 272.626 51.600,285.600 51.513,285.600 51.057 C 285.600 50.606,282.046 40.771,280.773 37.700 C 280.029 35.905,279.662 34.957,278.800 32.600 C 278.317 31.280,277.760 29.795,277.561 29.300 C 277.362 28.805,277.038 27.995,276.839 27.500 C 276.640 27.005,276.086 25.520,275.607 24.200 C 275.129 22.880,274.596 21.530,274.425 21.200 C 274.149 20.670,264.076 20.588,188.047 20.499 L 101.981 20.398 101.555 21.499 M67.495 67.500 L 55.591 67.612 55.695 82.906 L 55.800 98.200 188.200 98.200 L 320.600 98.200 320.705 83.027 C 320.787 71.154,320.700 67.784,320.305 67.533 C 319.856 67.248,97.351 67.219,67.495 67.500 M68.400 189.600 C 68.400 191.467,68.567 192.800,68.800 192.800 C 69.035 192.800,69.200 194.200,69.200 196.200 C 69.200 198.200,69.365 199.600,69.600 199.600 C 69.837 199.600,70.000 201.067,70.000 203.200 C 70.000 205.333,70.163 206.800,70.400 206.800 C 70.635 206.800,70.800 208.200,70.800 210.200 C 70.800 212.200,70.965 213.600,71.200 213.600 C 71.437 213.600,71.600 215.067,71.600 217.200 C 71.600 219.333,71.763 220.800,72.000 220.800 C 72.235 220.800,72.400 222.200,72.400 224.200 C 72.400 226.200,72.565 227.600,72.800 227.600 C 73.037 227.600,73.200 229.067,73.200 231.200 C 73.200 233.333,73.363 234.800,73.600 234.800 C 73.840 234.800,74.000 236.400,74.000 238.800 C 74.000 241.000,74.161 242.800,74.357 242.800 C 74.553 242.800,74.845 245.950,75.006 249.800 C 75.166 253.650,75.455 256.800,75.649 256.800 C 75.842 256.800,76.000 258.330,76.000 260.200 C 76.000 262.200,76.165 263.600,76.400 263.600 C 76.637 263.600,76.800 265.067,76.800 267.200 C 76.800 269.333,76.963 270.800,77.200 270.800 C 77.435 270.800,77.600 272.200,77.600 274.200 C 77.600 276.200,77.765 277.600,78.000 277.600 C 78.220 277.600,78.400 277.960,78.400 278.400 C 78.400 279.198,78.667 279.200,188.144 279.200 L 297.888 279.200 298.155 276.900 C 298.302 275.635,298.591 273.070,298.798 271.200 C 299.005 269.330,299.362 266.180,299.592 264.200 C 299.823 262.220,300.199 258.800,300.429 256.600 C 300.658 254.400,301.021 251.070,301.235 249.200 C 301.449 247.330,301.809 244.090,302.035 242.000 C 302.458 238.090,302.825 234.754,303.600 227.800 C 303.845 225.600,304.205 222.360,304.400 220.600 C 305.212 213.266,306.202 204.408,306.791 199.200 C 307.028 197.110,307.378 193.870,307.569 192.000 C 307.760 190.130,308.047 188.105,308.205 187.500 L 308.493 186.400 188.447 186.400 L 68.400 186.400 68.400 189.600 M198.000 194.286 C 210.355 197.059,220.829 206.029,225.687 218.000 C 225.911 218.550,226.252 219.313,226.447 219.695 C 226.641 220.077,226.800 220.741,226.800 221.171 C 226.800 221.601,226.980 222.064,227.200 222.200 C 227.420 222.336,227.600 223.146,227.600 224.000 C 227.600 224.854,227.780 225.664,228.000 225.800 C 228.241 225.949,228.400 228.730,228.400 232.800 C 228.400 236.870,228.241 239.651,228.000 239.800 C 227.780 239.936,227.600 240.746,227.600 241.600 C 227.600 242.454,227.420 243.264,227.200 243.400 C 226.980 243.536,226.800 244.076,226.800 244.600 C 226.800 245.124,226.620 245.664,226.400 245.800 C 226.180 245.936,226.000 246.487,226.000 247.024 C 226.000 247.561,225.820 248.000,225.600 248.000 C 225.380 248.000,225.200 248.265,225.200 248.588 C 225.200 248.911,224.840 249.811,224.400 250.588 C 223.960 251.365,223.220 252.675,222.755 253.500 C 210.871 274.603,179.043 278.746,161.820 261.431 C 159.141 258.737,156.800 256.047,156.800 255.662 C 156.800 255.491,156.485 254.993,156.100 254.555 C 155.364 253.718,155.054 253.203,153.723 250.600 C 143.682 230.962,152.463 205.782,172.400 197.043 C 173.830 196.416,175.313 195.745,175.695 195.551 C 176.077 195.358,176.741 195.200,177.171 195.200 C 177.601 195.200,178.064 195.020,178.200 194.800 C 178.336 194.580,179.022 194.397,179.724 194.394 C 180.426 194.391,181.270 194.209,181.600 193.990 C 182.356 193.490,195.508 193.727,198.000 194.286 M184.600 210.097 C 158.337 216.604,160.853 254.062,187.677 255.900 C 200.495 256.779,212.400 245.655,212.400 232.800 C 212.400 230.836,212.156 229.514,211.146 226.000 C 208.022 215.135,195.220 207.466,184.600 210.097 M97.200 249.800 C 97.200 250.130,97.020 250.400,96.800 250.400 C 96.580 250.400,96.400 250.130,96.400 249.800 C 96.400 249.470,96.580 249.200,96.800 249.200 C 97.020 249.200,97.200 249.470,97.200 249.800 M98.000 257.000 C 98.000 257.330,97.820 257.600,97.600 257.600 C 97.380 257.600,97.200 257.330,97.200 257.000 C 97.200 256.670,97.380 256.400,97.600 256.400 C 97.820 256.400,98.000 256.670,98.000 257.000 " stroke="none" fill="#fffff9" fill-rule="evenodd"></path><path id="path2" d="M90.500 6.220 C 89.565 7.189,88.800 8.256,88.800 8.591 C 88.800 8.926,88.620 9.200,88.400 9.200 C 88.180 9.200,88.000 9.639,88.000 10.176 C 88.000 10.713,87.820 11.264,87.600 11.400 C 87.380 11.536,87.200 11.997,87.200 12.424 C 87.200 12.851,87.020 13.200,86.800 13.200 C 86.580 13.200,86.400 13.650,86.400 14.200 C 86.400 14.750,86.220 15.200,86.000 15.200 C 85.780 15.200,85.600 15.740,85.600 16.400 C 85.600 17.060,85.453 17.600,85.272 17.600 C 85.092 17.600,84.700 18.500,84.400 19.600 C 84.100 20.700,83.708 21.600,83.528 21.600 C 83.347 21.600,83.200 22.140,83.200 22.800 C 83.200 23.460,83.020 24.000,82.800 24.000 C 82.580 24.000,82.400 24.450,82.400 25.000 C 82.400 25.550,82.220 26.000,82.000 26.000 C 81.780 26.000,81.600 26.349,81.600 26.776 C 81.600 27.203,81.420 27.664,81.200 27.800 C 80.980 27.936,80.800 28.487,80.800 29.024 C 80.800 29.561,80.620 30.000,80.400 30.000 C 80.180 30.000,80.000 30.540,80.000 31.200 C 80.000 31.860,79.820 32.400,79.600 32.400 C 79.380 32.400,79.200 32.749,79.200 33.176 C 79.200 33.603,79.020 34.064,78.800 34.200 C 78.580 34.336,78.400 34.887,78.400 35.424 C 78.400 35.961,78.220 36.400,78.000 36.400 C 77.780 36.400,77.600 36.940,77.600 37.600 C 77.600 38.260,77.460 38.800,77.289 38.800 C 76.922 38.800,75.406 43.572,75.542 44.300 C 75.593 44.575,75.447 44.800,75.218 44.800 C 74.988 44.800,74.800 45.149,74.800 45.576 C 74.800 46.003,74.620 46.464,74.400 46.600 C 74.180 46.736,74.000 47.287,74.000 47.824 C 74.000 48.361,73.820 48.800,73.600 48.800 C 73.380 48.800,73.200 49.340,73.200 50.000 L 73.200 51.200 58.595 51.200 C 47.642 51.200,43.771 51.325,43.117 51.700 C 41.735 52.492,40.400 53.908,40.400 54.582 C 40.400 54.922,40.220 55.200,40.000 55.200 C 39.780 55.200,39.600 55.740,39.600 56.400 C 39.600 57.060,39.420 57.600,39.200 57.600 C 38.648 57.600,38.648 107.859,39.200 108.200 C 39.420 108.336,39.600 108.887,39.600 109.424 C 39.600 109.961,39.780 110.400,40.000 110.400 C 40.220 110.400,40.400 110.678,40.400 111.018 C 40.400 111.692,41.735 113.108,43.117 113.900 C 43.708 114.239,45.922 114.400,49.995 114.400 L 56.000 114.400 56.000 118.000 C 56.000 120.133,56.163 121.600,56.400 121.600 C 56.635 121.600,56.800 123.000,56.800 125.000 C 56.800 127.000,56.965 128.400,57.200 128.400 C 57.437 128.400,57.600 129.867,57.600 132.000 C 57.600 133.980,57.753 135.600,57.939 135.600 C 58.228 135.600,58.588 139.724,58.954 147.211 C 59.003 148.207,59.161 149.213,59.305 149.446 C 59.449 149.679,59.599 151.254,59.638 152.945 C 59.677 154.636,59.865 156.116,60.055 156.234 C 60.245 156.351,60.400 157.956,60.400 159.800 C 60.400 161.644,60.580 163.264,60.800 163.400 C 61.020 163.536,61.200 165.077,61.200 166.824 L 61.200 170.000 58.075 170.000 C 55.504 170.000,54.799 170.142,54.092 170.800 C 53.620 171.240,52.971 171.600,52.650 171.600 C 52.329 171.600,51.828 172.140,51.536 172.800 C 51.244 173.460,50.869 174.000,50.702 174.000 C 50.536 174.000,50.400 176.430,50.400 179.400 C 50.400 182.733,50.553 184.800,50.800 184.800 C 51.035 184.800,51.200 186.200,51.200 188.200 C 51.200 190.200,51.365 191.600,51.600 191.600 C 51.837 191.600,52.000 193.067,52.000 195.200 C 52.000 197.333,52.163 198.800,52.400 198.800 C 52.635 198.800,52.800 200.192,52.800 202.176 C 52.800 204.033,52.980 205.664,53.200 205.800 C 53.420 205.936,53.600 207.567,53.600 209.424 C 53.600 211.408,53.765 212.800,54.000 212.800 C 54.237 212.800,54.400 214.267,54.400 216.400 C 54.400 218.533,54.563 220.000,54.800 220.000 C 55.035 220.000,55.200 221.400,55.200 223.400 C 55.200 225.400,55.365 226.800,55.600 226.800 C 55.837 226.800,56.000 228.267,56.000 230.400 C 56.000 232.533,56.163 234.000,56.400 234.000 C 56.635 234.000,56.800 235.400,56.800 237.400 C 56.800 239.400,56.965 240.800,57.200 240.800 C 57.437 240.800,57.600 242.267,57.600 244.400 C 57.600 246.380,57.753 248.000,57.939 248.000 C 58.221 248.000,58.640 252.602,58.957 259.200 C 58.994 259.970,59.152 261.230,59.307 262.000 C 59.462 262.770,59.693 264.660,59.821 266.200 C 59.948 267.740,60.224 270.530,60.433 272.400 C 60.643 274.270,60.996 277.420,61.219 279.400 C 61.441 281.380,61.721 284.350,61.842 286.000 C 61.962 287.650,62.227 289.171,62.430 289.380 C 62.634 289.589,62.800 290.174,62.800 290.680 C 62.800 291.186,62.935 291.601,63.100 291.603 C 63.265 291.604,63.707 292.144,64.081 292.803 C 64.456 293.461,65.041 294.000,65.381 294.000 C 65.722 294.000,66.000 294.180,66.000 294.400 C 66.000 294.620,66.360 294.800,66.800 294.800 C 67.240 294.800,67.600 294.980,67.600 295.200 C 67.600 295.441,69.267 295.600,71.800 295.600 L 76.000 295.600 76.047 298.100 C 76.073 299.475,76.066 300.823,76.031 301.095 C 75.996 301.368,76.147 301.927,76.367 302.338 C 76.587 302.750,76.799 304.466,76.838 306.153 C 76.877 307.840,77.065 309.316,77.255 309.434 C 77.445 309.551,77.600 311.156,77.600 313.000 C 77.600 314.844,77.780 316.464,78.000 316.600 C 78.220 316.736,78.400 318.367,78.400 320.224 C 78.400 322.208,78.565 323.600,78.800 323.600 C 79.037 323.600,79.200 325.067,79.200 327.200 C 79.200 329.333,79.363 330.800,79.600 330.800 C 79.835 330.800,80.000 332.192,80.000 334.176 C 80.000 336.033,80.180 337.664,80.400 337.800 C 80.620 337.936,80.800 339.556,80.800 341.400 C 80.800 343.244,80.980 344.864,81.200 345.000 C 81.420 345.136,81.600 346.756,81.600 348.600 C 81.600 350.444,81.780 352.064,82.000 352.200 C 82.220 352.336,82.400 353.956,82.400 355.800 C 82.400 357.644,82.580 359.264,82.800 359.400 C 83.020 359.536,83.200 360.706,83.200 362.000 C 83.200 363.294,83.380 364.464,83.600 364.600 C 83.820 364.736,84.000 365.467,84.000 366.224 C 84.000 366.981,84.180 367.600,84.400 367.600 C 84.620 367.600,84.800 368.140,84.800 368.800 C 84.800 369.460,84.980 370.000,85.200 370.000 C 85.420 370.000,85.600 370.343,85.600 370.762 C 85.600 371.578,87.201 374.912,87.700 375.133 C 87.865 375.207,88.000 375.572,88.000 375.945 C 88.000 376.318,88.360 376.883,88.800 377.200 C 89.240 377.517,89.600 378.015,89.600 378.306 C 89.600 378.598,90.050 379.286,90.600 379.836 C 91.150 380.386,91.600 381.020,91.600 381.245 C 91.600 382.181,98.272 388.241,100.848 389.645 C 101.812 390.170,102.658 390.729,102.729 390.887 C 102.800 391.045,103.477 391.291,104.234 391.433 C 104.990 391.575,105.707 391.850,105.828 392.045 C 105.949 392.240,106.397 392.400,106.824 392.400 C 107.251 392.400,107.600 392.580,107.600 392.800 C 107.600 393.020,108.151 393.200,108.824 393.200 C 109.537 393.200,109.944 393.367,109.800 393.600 C 109.653 393.839,110.137 394.000,111.000 394.000 C 111.863 394.000,112.347 394.161,112.200 394.400 C 112.048 394.647,112.729 394.800,113.976 394.800 C 115.089 394.800,116.000 394.980,116.000 395.200 C 116.000 395.465,140.333 395.600,188.200 395.600 C 236.067 395.600,260.400 395.465,260.400 395.200 C 260.400 394.980,261.300 394.800,262.400 394.800 C 263.500 394.800,264.400 394.620,264.400 394.400 C 264.400 394.180,264.940 394.000,265.600 394.000 C 266.260 394.000,266.800 393.820,266.800 393.600 C 266.800 393.380,267.340 393.200,268.000 393.200 C 268.660 393.200,269.200 393.020,269.200 392.800 C 269.200 392.580,269.560 392.400,270.000 392.400 C 270.440 392.400,270.800 392.220,270.800 392.000 C 270.800 391.780,271.088 391.600,271.440 391.600 C 272.233 391.600,274.817 390.409,275.529 389.715 C 275.819 389.432,276.205 389.200,276.386 389.200 C 276.567 389.200,277.293 388.660,278.000 388.000 C 278.707 387.340,279.447 386.800,279.645 386.800 C 280.138 386.800,284.800 382.030,284.800 381.526 C 284.800 381.303,285.340 380.617,286.000 380.000 C 286.660 379.383,287.200 378.674,287.200 378.423 C 287.200 378.172,287.560 377.580,288.000 377.108 C 288.440 376.636,288.800 376.013,288.800 375.725 C 288.800 375.436,288.980 375.200,289.200 375.200 C 289.420 375.200,289.600 374.840,289.600 374.400 C 289.600 373.960,289.780 373.600,290.000 373.600 C 290.220 373.600,290.400 373.251,290.400 372.824 C 290.400 372.397,290.575 371.939,290.788 371.807 C 291.002 371.675,291.295 370.675,291.440 369.584 C 291.585 368.493,291.860 367.600,292.052 367.600 C 292.243 367.600,292.400 366.880,292.400 366.000 C 292.400 365.120,292.580 364.400,292.800 364.400 C 293.025 364.400,293.200 363.275,293.200 361.824 C 293.200 360.407,293.380 359.136,293.600 359.000 C 293.820 358.864,294.000 357.334,294.000 355.600 C 294.000 353.866,294.180 352.336,294.400 352.200 C 294.620 352.064,294.800 350.343,294.800 348.376 C 294.800 346.259,294.963 344.800,295.200 344.800 C 295.435 344.800,295.600 343.400,295.600 341.400 C 295.600 339.400,295.765 338.000,296.000 338.000 C 296.237 338.000,296.400 336.533,296.400 334.400 C 296.400 332.267,296.563 330.800,296.800 330.800 C 297.035 330.800,297.200 329.408,297.200 327.424 C 297.200 325.567,297.380 323.936,297.600 323.800 C 297.820 323.664,298.000 322.033,298.000 320.176 C 298.000 318.192,298.165 316.800,298.400 316.800 C 298.637 316.800,298.800 315.333,298.800 313.200 C 298.800 311.067,298.963 309.600,299.200 309.600 C 299.435 309.600,299.600 308.200,299.600 306.200 C 299.600 304.200,299.765 302.800,300.000 302.800 C 300.237 302.800,300.400 301.333,300.400 299.200 L 300.400 295.600 304.912 295.600 C 308.965 295.600,309.482 295.519,310.000 294.800 C 310.317 294.360,310.897 294.000,311.288 294.000 C 311.680 294.000,312.000 293.764,312.000 293.475 C 312.000 293.187,312.360 292.564,312.800 292.092 C 313.240 291.620,313.600 290.866,313.600 290.417 C 313.600 289.968,313.780 289.600,314.000 289.600 C 314.233 289.600,314.400 288.267,314.400 286.400 C 314.400 284.533,314.567 283.200,314.800 283.200 C 315.037 283.200,315.200 281.733,315.200 279.600 C 315.200 277.467,315.363 276.000,315.600 276.000 C 315.835 276.000,316.000 274.600,316.000 272.600 C 316.000 270.600,316.165 269.200,316.400 269.200 C 316.637 269.200,316.800 267.733,316.800 265.600 C 316.800 263.467,316.963 262.000,317.200 262.000 C 317.435 262.000,317.600 260.608,317.600 258.624 C 317.600 256.767,317.780 255.136,318.000 255.000 C 318.220 254.864,318.400 253.233,318.400 251.376 C 318.400 249.392,318.565 248.000,318.800 248.000 C 319.037 248.000,319.200 246.533,319.200 244.400 C 319.200 242.267,319.363 240.800,319.600 240.800 C 319.835 240.800,320.000 239.400,320.000 237.400 C 320.000 235.400,320.165 234.000,320.400 234.000 C 320.637 234.000,320.800 232.533,320.800 230.400 C 320.800 228.267,320.963 226.800,321.200 226.800 C 321.435 226.800,321.600 225.408,321.600 223.424 C 321.600 221.567,321.780 219.936,322.000 219.800 C 322.220 219.664,322.400 218.069,322.400 216.256 C 322.400 214.443,322.567 212.789,322.771 212.580 C 322.975 212.371,323.245 210.715,323.371 208.900 C 323.497 207.085,323.705 204.115,323.834 202.301 C 323.962 200.486,324.212 198.821,324.389 198.601 C 324.567 198.380,324.842 195.273,325.002 191.695 C 325.161 188.118,325.451 185.092,325.646 184.972 C 326.327 184.551,326.065 175.455,325.329 173.961 C 324.526 172.330,322.867 170.801,321.900 170.800 C 321.515 170.800,321.200 170.620,321.200 170.400 C 321.200 170.169,319.923 170.000,318.168 170.000 L 315.137 170.000 315.373 166.900 C 315.503 165.195,315.711 162.360,315.834 160.600 C 315.957 158.840,316.225 157.229,316.429 157.020 C 316.633 156.811,316.800 155.182,316.800 153.400 C 316.800 151.618,316.967 149.989,317.171 149.780 C 317.375 149.571,317.643 147.960,317.766 146.200 C 317.889 144.440,318.088 141.560,318.209 139.800 C 318.329 138.040,318.595 136.240,318.800 135.800 C 319.005 135.360,319.271 133.560,319.391 131.800 C 319.512 130.040,319.711 127.160,319.834 125.400 C 319.957 123.640,320.225 122.029,320.429 121.820 C 320.633 121.611,320.800 120.036,320.800 118.320 L 320.800 115.200 326.200 115.200 C 329.533 115.200,331.600 115.047,331.600 114.800 C 331.600 114.580,332.056 114.400,332.613 114.400 C 333.227 114.400,334.134 113.886,334.913 113.097 C 336.145 111.850,336.547 111.176,337.550 108.681 C 338.433 106.486,338.157 59.417,337.247 56.928 C 336.462 54.780,334.073 52.000,333.013 52.000 C 332.676 52.000,332.400 51.820,332.400 51.600 C 332.400 51.341,327.333 51.200,318.000 51.200 C 303.867 51.200,303.600 51.185,303.600 50.400 C 303.600 49.960,303.420 49.600,303.200 49.600 C 302.980 49.600,302.800 49.251,302.800 48.824 C 302.800 48.397,302.620 47.936,302.400 47.800 C 302.180 47.664,302.000 47.113,302.000 46.576 C 302.000 46.039,301.820 45.600,301.600 45.600 C 301.380 45.600,301.200 45.238,301.200 44.795 C 301.200 44.352,300.992 43.587,300.738 43.095 C 299.767 41.218,299.600 40.793,299.600 40.205 C 299.600 39.872,299.420 39.600,299.200 39.600 C 298.980 39.600,298.800 39.060,298.800 38.400 C 298.800 37.740,298.620 37.200,298.400 37.200 C 298.180 37.200,298.000 36.761,298.000 36.224 C 298.000 35.687,297.820 35.136,297.600 35.000 C 297.380 34.864,297.200 34.403,297.200 33.976 C 297.200 33.549,297.020 33.200,296.800 33.200 C 296.580 33.200,296.400 32.660,296.400 32.000 C 296.400 31.340,296.220 30.800,296.000 30.800 C 295.780 30.800,295.600 30.361,295.600 29.824 C 295.600 29.287,295.420 28.736,295.200 28.600 C 294.980 28.464,294.800 28.003,294.800 27.576 C 294.800 27.149,294.620 26.800,294.400 26.800 C 294.180 26.800,294.000 26.350,294.000 25.800 C 294.000 25.250,293.820 24.800,293.600 24.800 C 293.380 24.800,293.200 24.260,293.200 23.600 C 293.200 22.940,293.020 22.400,292.800 22.400 C 292.580 22.400,292.400 22.040,292.400 21.600 C 292.400 21.160,292.220 20.800,292.000 20.800 C 291.780 20.800,291.600 20.404,291.600 19.920 C 291.600 18.687,290.288 14.400,289.911 14.400 C 289.740 14.400,289.600 13.961,289.600 13.424 C 289.600 12.887,289.420 12.336,289.200 12.200 C 288.980 12.064,288.800 11.513,288.800 10.976 C 288.800 10.439,288.620 10.000,288.400 10.000 C 288.180 10.000,288.000 9.640,288.000 9.200 C 288.000 8.760,287.820 8.400,287.600 8.400 C 287.380 8.400,287.200 8.122,287.200 7.782 C 287.200 6.982,285.418 5.200,284.618 5.200 C 284.278 5.200,284.000 5.020,284.000 4.800 C 284.000 4.534,251.786 4.410,188.100 4.429 L 92.200 4.458 90.500 6.220 M274.426 20.414 C 274.852 20.642,275.200 21.068,275.200 21.361 C 275.200 21.654,275.579 22.862,276.043 24.047 C 276.507 25.231,277.022 26.560,277.189 27.000 C 277.356 27.440,277.680 28.250,277.908 28.800 C 278.855 31.080,285.818 49.515,286.179 50.700 L 286.454 51.600 188.227 51.600 C 129.490 51.600,90.000 51.454,90.000 51.236 C 90.000 51.036,90.822 48.651,91.826 45.936 C 92.830 43.221,94.017 40.010,94.465 38.800 C 94.912 37.590,95.423 36.240,95.600 35.800 C 95.777 35.360,96.300 33.965,96.761 32.700 C 97.222 31.435,97.978 29.365,98.439 28.100 C 98.900 26.835,99.424 25.440,99.602 25.000 C 99.780 24.560,100.229 23.391,100.599 22.401 C 100.970 21.412,101.481 20.470,101.736 20.307 C 102.493 19.826,273.524 19.931,274.426 20.414 M321.105 82.900 L 321.000 98.600 188.200 98.600 L 55.400 98.600 55.295 82.900 L 55.191 67.200 188.200 67.200 L 321.209 67.200 321.105 82.900 M304.046 114.179 C 304.246 114.379,303.862 119.154,303.207 124.600 C 302.969 126.580,302.591 129.910,302.366 132.000 C 301.897 136.365,301.428 140.579,300.810 146.000 C 300.571 148.090,300.209 151.420,300.004 153.400 C 299.799 155.380,299.425 158.710,299.172 160.800 C 298.918 162.890,298.596 165.860,298.456 167.400 L 298.200 170.200 188.202 170.200 L 78.204 170.200 76.922 158.600 C 76.216 152.220,75.254 143.490,74.784 139.200 C 74.314 134.910,73.765 129.960,73.564 128.200 C 73.363 126.440,73.023 123.250,72.810 121.112 C 72.596 118.973,72.307 116.768,72.167 116.213 C 72.028 115.657,72.017 114.931,72.144 114.601 C 72.365 114.026,303.472 113.605,304.046 114.179 M308.567 188.000 C 308.538 189.991,308.171 193.817,307.187 202.400 C 306.998 204.050,306.653 207.200,306.421 209.400 C 305.879 214.522,305.304 219.701,304.799 224.000 C 304.579 225.870,304.218 229.110,303.997 231.200 C 303.475 236.118,302.952 240.905,302.445 245.400 C 302.222 247.380,301.846 250.800,301.610 253.000 C 301.374 255.200,301.009 258.530,300.799 260.400 C 300.430 263.704,300.125 266.518,299.201 275.175 C 298.956 277.471,298.665 279.496,298.554 279.675 C 298.195 280.255,77.599 280.081,77.427 279.500 C 77.345 279.225,77.072 277.110,76.820 274.800 C 76.567 272.490,76.198 269.340,76.000 267.800 C 75.802 266.260,75.442 263.110,75.202 260.800 C 74.629 255.293,74.095 250.415,73.592 246.100 C 73.368 244.175,72.560 236.750,71.798 229.600 C 71.035 222.450,70.220 214.890,69.986 212.800 C 69.057 204.470,68.834 202.436,68.407 198.400 C 68.163 196.090,67.792 192.995,67.582 191.523 C 67.372 190.051,67.200 188.208,67.200 187.429 L 67.200 186.012 79.100 185.899 C 85.645 185.838,139.960 185.790,199.800 185.793 L 308.600 185.800 308.567 188.000 M182.400 194.627 C 176.241 195.856,171.944 197.598,167.152 200.810 C 164.404 202.652,159.529 207.328,157.988 209.600 C 157.466 210.370,156.940 211.090,156.819 211.200 C 156.448 211.539,155.254 213.693,154.160 216.000 C 148.199 228.564,148.825 240.296,156.154 253.400 C 169.017 276.396,204.902 277.590,220.499 255.540 C 240.566 227.171,216.015 187.918,182.400 194.627 M194.600 209.773 C 201.895 211.517,208.919 217.881,211.407 225.000 C 213.100 229.844,213.194 236.349,211.627 240.200 C 205.395 255.516,189.675 260.992,176.186 252.546 C 159.962 242.388,163.389 215.740,181.600 210.439 C 182.590 210.151,183.760 209.761,184.200 209.572 C 185.102 209.185,192.760 209.334,194.600 209.773 M283.457 295.804 C 283.585 296.137,283.485 298.252,283.235 300.504 C 282.523 306.923,281.573 315.990,280.794 323.800 C 280.553 326.220,280.194 329.640,279.997 331.400 C 279.800 333.160,279.441 336.670,279.200 339.200 C 278.959 341.730,278.596 345.240,278.393 347.000 C 278.190 348.760,277.832 352.180,277.597 354.600 C 276.253 368.430,270.913 375.749,259.949 378.787 C 256.079 379.860,121.446 380.060,117.005 379.000 C 105.178 376.176,99.691 368.207,98.003 351.400 C 97.759 348.980,97.401 345.740,97.207 344.200 C 96.776 340.796,96.397 337.446,94.606 321.200 C 93.841 314.270,93.039 307.160,92.824 305.400 C 92.609 303.640,92.322 301.120,92.187 299.800 C 92.051 298.480,91.845 296.998,91.728 296.506 L 91.516 295.612 103.458 295.500 C 154.273 295.022,283.241 295.241,283.457 295.804 " stroke="none" fill="#5c4c64" fill-rule="evenodd"></path><path id="path3" d="M79.100 185.899 L 67.200 186.012 67.200 187.429 C 67.200 188.208,67.372 190.051,67.582 191.523 C 67.792 192.995,68.163 196.090,68.407 198.400 C 68.834 202.436,69.057 204.470,69.986 212.800 C 70.220 214.890,71.035 222.450,71.798 229.600 C 72.560 236.750,73.368 244.175,73.592 246.100 C 74.095 250.415,74.629 255.293,75.202 260.800 C 75.442 263.110,75.802 266.260,76.000 267.800 C 76.198 269.340,76.567 272.490,76.820 274.800 C 77.072 277.110,77.345 279.225,77.427 279.500 C 77.599 280.081,298.195 280.255,298.554 279.675 C 298.665 279.496,298.956 277.471,299.201 275.175 C 300.125 266.518,300.430 263.704,300.799 260.400 C 301.009 258.530,301.374 255.200,301.610 253.000 C 301.846 250.800,302.222 247.380,302.445 245.400 C 302.952 240.905,303.475 236.118,303.997 231.200 C 304.218 229.110,304.579 225.870,304.799 224.000 C 305.304 219.701,305.879 214.522,306.421 209.400 C 306.653 207.200,306.998 204.050,307.187 202.400 C 308.171 193.817,308.538 189.991,308.567 188.000 L 308.600 185.800 199.800 185.793 C 139.960 185.790,85.645 185.838,79.100 185.899 M308.205 187.500 C 308.047 188.105,307.760 190.130,307.569 192.000 C 307.378 193.870,307.028 197.110,306.791 199.200 C 306.202 204.408,305.212 213.266,304.400 220.600 C 304.205 222.360,303.845 225.600,303.600 227.800 C 302.825 234.754,302.458 238.090,302.035 242.000 C 301.809 244.090,301.449 247.330,301.235 249.200 C 301.021 251.070,300.658 254.400,300.429 256.600 C 300.199 258.800,299.823 262.220,299.592 264.200 C 299.362 266.180,299.005 269.330,298.798 271.200 C 298.591 273.070,298.302 275.635,298.155 276.900 L 297.888 279.200 188.144 279.200 C 78.667 279.200,78.400 279.198,78.400 278.400 C 78.400 277.960,78.220 277.600,78.000 277.600 C 77.765 277.600,77.600 276.200,77.600 274.200 C 77.600 272.200,77.435 270.800,77.200 270.800 C 76.963 270.800,76.800 269.333,76.800 267.200 C 76.800 265.067,76.637 263.600,76.400 263.600 C 76.165 263.600,76.000 262.200,76.000 260.200 C 76.000 258.330,75.842 256.800,75.649 256.800 C 75.455 256.800,75.166 253.650,75.006 249.800 C 74.845 245.950,74.553 242.800,74.357 242.800 C 74.161 242.800,74.000 241.000,74.000 238.800 C 74.000 236.400,73.840 234.800,73.600 234.800 C 73.363 234.800,73.200 233.333,73.200 231.200 C 73.200 229.067,73.037 227.600,72.800 227.600 C 72.565 227.600,72.400 226.200,72.400 224.200 C 72.400 222.200,72.235 220.800,72.000 220.800 C 71.763 220.800,71.600 219.333,71.600 217.200 C 71.600 215.067,71.437 213.600,71.200 213.600 C 70.965 213.600,70.800 212.200,70.800 210.200 C 70.800 208.200,70.635 206.800,70.400 206.800 C 70.163 206.800,70.000 205.333,70.000 203.200 C 70.000 201.067,69.837 199.600,69.600 199.600 C 69.365 199.600,69.200 198.200,69.200 196.200 C 69.200 194.200,69.035 192.800,68.800 192.800 C 68.567 192.800,68.400 191.467,68.400 189.600 L 68.400 186.400 188.447 186.400 L 308.493 186.400 308.205 187.500 M181.600 193.990 C 181.270 194.209,180.426 194.391,179.724 194.394 C 179.022 194.397,178.336 194.580,178.200 194.800 C 178.064 195.020,177.601 195.200,177.171 195.200 C 176.741 195.200,176.077 195.358,175.695 195.551 C 175.313 195.745,173.830 196.416,172.400 197.043 C 152.463 205.782,143.682 230.962,153.723 250.600 C 155.054 253.203,155.364 253.718,156.100 254.555 C 156.485 254.993,156.800 255.491,156.800 255.662 C 156.800 256.047,159.141 258.737,161.820 261.431 C 173.095 272.766,191.796 275.589,206.800 268.222 C 213.167 265.095,219.533 259.221,222.755 253.500 C 223.220 252.675,223.960 251.365,224.400 250.588 C 224.840 249.811,225.200 248.911,225.200 248.588 C 225.200 248.265,225.380 248.000,225.600 248.000 C 225.820 248.000,226.000 247.561,226.000 247.024 C 226.000 246.487,226.180 245.936,226.400 245.800 C 226.620 245.664,226.800 245.124,226.800 244.600 C 226.800 244.076,226.980 243.536,227.200 243.400 C 227.420 243.264,227.600 242.454,227.600 241.600 C 227.600 240.746,227.780 239.936,228.000 239.800 C 228.241 239.651,228.400 236.870,228.400 232.800 C 228.400 228.730,228.241 225.949,228.000 225.800 C 227.780 225.664,227.600 224.854,227.600 224.000 C 227.600 223.146,227.420 222.336,227.200 222.200 C 226.980 222.064,226.800 221.601,226.800 221.171 C 226.800 220.741,226.641 220.077,226.447 219.695 C 226.252 219.313,225.911 218.550,225.687 218.000 C 220.829 206.029,210.355 197.059,198.000 194.286 C 195.508 193.727,182.356 193.490,181.600 193.990 M195.600 194.583 C 229.611 201.189,239.566 243.432,211.993 264.143 C 194.448 277.322,166.531 271.951,156.154 253.400 C 148.825 240.296,148.199 228.564,154.160 216.000 C 155.254 213.693,156.448 211.539,156.819 211.200 C 156.940 211.090,157.466 210.370,157.988 209.600 C 160.909 205.292,167.101 200.319,172.965 197.571 C 179.779 194.378,188.571 193.217,195.600 194.583 M96.400 249.800 C 96.400 250.130,96.580 250.400,96.800 250.400 C 97.020 250.400,97.200 250.130,97.200 249.800 C 97.200 249.470,97.020 249.200,96.800 249.200 C 96.580 249.200,96.400 249.470,96.400 249.800 M97.200 257.000 C 97.200 257.330,97.380 257.600,97.600 257.600 C 97.820 257.600,98.000 257.330,98.000 257.000 C 98.000 256.670,97.820 256.400,97.600 256.400 C 97.380 256.400,97.200 256.670,97.200 257.000 " stroke="none" fill="#b89464" fill-rule="evenodd"></path><path id="path4" d="M101.736 20.307 C 101.481 20.470,100.970 21.412,100.599 22.401 C 100.229 23.391,99.780 24.560,99.602 25.000 C 99.424 25.440,98.900 26.835,98.439 28.100 C 97.978 29.365,97.222 31.435,96.761 32.700 C 96.300 33.965,95.777 35.360,95.600 35.800 C 95.423 36.240,94.912 37.590,94.465 38.800 C 94.017 40.010,92.830 43.221,91.826 45.936 C 90.822 48.651,90.000 51.036,90.000 51.236 C 90.000 51.448,94.870 51.561,101.700 51.506 L 113.400 51.413 102.100 51.300 C 91.252 51.192,90.800 51.157,90.800 50.417 C 90.800 49.994,90.980 49.536,91.200 49.400 C 91.420 49.264,91.600 48.801,91.600 48.371 C 91.600 47.941,91.759 47.277,91.953 46.895 C 92.429 45.960,93.018 44.493,93.600 42.800 C 93.864 42.030,94.267 40.950,94.494 40.400 C 95.054 39.045,95.372 38.211,96.400 35.400 C 96.883 34.080,97.423 32.640,97.600 32.200 C 97.777 31.760,98.285 30.410,98.728 29.200 C 99.171 27.990,100.064 25.560,100.713 23.800 L 101.893 20.600 188.003 20.600 C 264.140 20.600,274.149 20.669,274.425 21.200 C 274.596 21.530,275.129 22.880,275.607 24.200 C 276.611 26.968,276.933 27.815,277.507 29.200 C 277.735 29.750,278.317 31.280,278.800 32.600 C 279.662 34.957,280.029 35.905,280.773 37.700 C 282.046 40.771,285.600 50.606,285.600 51.057 C 285.600 51.356,285.792 51.600,286.027 51.600 C 286.284 51.600,286.345 51.243,286.179 50.700 C 285.818 49.515,278.855 31.080,277.908 28.800 C 277.680 28.250,277.356 27.440,277.189 27.000 C 277.022 26.560,276.507 25.231,276.043 24.047 C 275.579 22.862,275.200 21.654,275.200 21.361 C 275.200 21.068,274.852 20.642,274.426 20.414 C 273.524 19.931,102.493 19.826,101.736 20.307 M55.295 82.900 L 55.400 98.600 188.200 98.600 L 321.000 98.600 321.105 82.900 C 321.203 68.133,321.167 67.200,320.505 67.206 C 319.997 67.211,319.941 67.302,320.305 67.533 C 320.700 67.784,320.787 71.154,320.705 83.027 L 320.600 98.200 188.200 98.200 L 55.800 98.200 55.695 82.906 L 55.591 67.612 67.495 67.500 L 79.400 67.388 67.295 67.294 L 55.191 67.200 55.295 82.900 M184.200 209.572 C 183.760 209.761,182.590 210.151,181.600 210.439 C 165.815 215.034,160.324 236.458,171.786 248.731 C 183.296 261.055,203.253 258.090,210.359 243.000 C 211.762 240.021,211.914 239.590,212.376 237.280 C 214.634 225.986,208.195 215.006,196.600 210.379 C 194.262 209.446,185.781 208.894,184.200 209.572 M193.269 210.044 C 204.086 212.299,212.400 222.189,212.400 232.800 C 212.400 238.367,209.665 244.685,205.371 249.040 C 191.343 263.265,167.279 254.109,166.108 234.101 C 165.239 219.262,179.004 207.070,193.269 210.044 " stroke="none" fill="#a898a4" fill-rule="evenodd"></path></g></svg>